<?xml version="1.0" encoding="utf-8"?>
<!-- Generator: Adobe Illustrator 19.1.0, SVG Export Plug-In . SVG Version: 6.00 Build 0)  -->
<svg version="1.1" id="Calque_1" xmlns="http://www.w3.org/2000/svg" xmlns:xlink="http://www.w3.org/1999/xlink" x="0px" y="0px"
	 viewBox="-261 387.1 73 68.8" style="enable-background:new -261 387.1 73 68.8;" xml:space="preserve">
<style type="text/css">
	.st0{fill:#D4ECF9;}
	.st1{fill:#022E5F;}
</style>
<g>
	<polygon class="st0" points="-242.6,411.5 -226.7,438.7 -232.4,411.5 	"/>
	<polygon class="st0" points="-230.4,411.5 -224.5,439.6 -218.7,411.5 	"/>
	<polygon class="st0" points="-226.2,399.5 -237.7,399.5 -242.7,409.5 -232.6,409.5 	"/>
	<polygon class="st0" points="-218.9,409.5 -224.4,400.4 -230.2,409.5 	"/>
	<polygon class="st0" points="-222.7,399.5 -216.5,409.5 -206.2,409.5 -211.1,399.5 	"/>
	<polygon class="st0" points="-222.2,438.7 -206.6,411.5 -216.7,411.5 	"/>
	<path class="st1" d="M-239,397.5l-6.5,13l0.6,1l19.6,33.5c0,0,0,0,0,0c0,0,0,0,0,0.1c0,0.1,0.1,0.1,0.2,0.2c0,0,0,0,0.1,0.1
		c0.1,0,0.1,0.1,0.2,0.1c0,0,0.1,0,0.1,0c0.1,0,0.2,0.1,0.3,0.1h0c0.1,0,0.2,0,0.3-0.1c0,0,0.1,0,0.1,0c0.1,0,0.1-0.1,0.2-0.1
		c0,0,0,0,0.1-0.1c0.1-0.1,0.1-0.1,0.2-0.2c0,0,0,0,0,0c0,0,0,0,0,0l19.3-33.5l0.7-1.2l-6.4-12.8H-239z M-237.7,399.5h11.5l-6.3,10
		h-10.2L-237.7,399.5z M-224.4,400.4l5.6,9.1h-11.3L-224.4,400.4z M-242.6,411.5h10.1l5.8,27.2L-242.6,411.5z M-224.5,439.6l-6-28.1
		h11.7L-224.5,439.6z M-222.2,438.7l5.6-27.2h10.1L-222.2,438.7z M-216.5,409.5l-6.1-10h11.5l5,10H-216.5z"/>
</g>
</svg>
